<?xml version="1.0" standalone="no"?>
<svg viewBox="0 0 200 200" xmlns="http://www.w3.org/2000/svg">
  <path fill="#006460" d="M35.4,-54.8C49.2,-53.4,65.9,-50.5,72.6,-41.2C79.2,-31.8,75.9,-15.9,72.9,-1.7C69.9,12.4,67.2,24.8,60,33.3C52.8,41.8,41.1,46.4,30.4,51.5C19.6,56.6,9.8,62.3,-2.1,66C-14,69.7,-28.1,71.3,-38,65.7C-47.9,60.1,-53.7,47.2,-55.5,35C-57.3,22.9,-55.3,11.4,-57.8,-1.5C-60.3,-14.4,-67.5,-28.7,-66.4,-42.1C-65.2,-55.5,-55.8,-67.9,-43.4,-70.1C-30.9,-72.3,-15.5,-64.2,-2.3,-60.2C10.8,-56.2,21.7,-56.2,35.4,-54.8Z" transform="translate(100 100)" />
</svg>
