<?xml version="1.0" standalone="no"?>
<svg viewBox="0 0 200 200" xmlns="http://www.w3.org/2000/svg">
  <path fill="#006460" d="M27.3,-40C37.7,-41.3,50.2,-38.7,58.6,-31.4C67.1,-24.1,71.6,-12,65,-3.8C58.4,4.4,40.6,8.8,31.9,15.7C23.2,22.6,23.6,32.1,19.8,40.5C16,48.9,8,56.3,-0.3,56.8C-8.6,57.4,-17.2,51.1,-22.6,43.5C-27.9,36,-30,27.2,-39.3,19.8C-48.6,12.3,-65.1,6.2,-72.9,-4.5C-80.7,-15.2,-79.8,-30.3,-72.4,-41.2C-65.1,-52.1,-51.4,-58.7,-38.3,-55.8C-25.1,-53,-12.6,-40.6,-2.1,-37C8.4,-33.5,16.9,-38.7,27.3,-40Z" transform="translate(100 100)" />
</svg>
